<?xml version="1.0" encoding="UTF-8" standalone="no"?>
<svg xmlns="http://www.w3.org/2000/svg" version="1.1" viewBox="0.00 0.00 1671.00 1304.00">
  <path fill="#0c3f8d" d="   M 820.75 13.82   Q 839.06 13.84 843.76 14.00   Q 871.65 14.96 900.38 20.66   Q 941.32 28.77 975.74 38.75   Q 989.59 42.77 998.25 48.78   A 1.54 1.48 8.6 0 1 998.81 49.51   Q 999.26 50.80 998.44 51.90   Q 997.96 52.55 996.37 52.65   Q 995.41 52.70 994.00 52.67   C 937.48 51.54 881.51 51.23 820.72 51.19   C 759.94 51.15 703.97 51.39 647.45 52.44   Q 646.04 52.47 645.08 52.42   Q 643.49 52.32 643.01 51.67   Q 642.19 50.56 642.64 49.28   A 1.54 1.48 -8.5 0 1 643.20 48.55   Q 651.87 42.55 665.73 38.55   Q 700.16 28.61 741.11 20.56   Q 769.85 14.89 797.74 13.97   Q 802.44 13.82 820.75 13.82   Z"></path>
  <path fill="#0c3f8d" d="   M 1121.68 124.66   L 519.68 124.57   A 3.18 3.18 0.0 0 1 517.87 118.77   L 569.03 83.51   A 3.18 3.18 0.0 0 1 570.84 82.95   L 1070.53 83.03   A 3.18 3.18 0.0 0 1 1072.33 83.59   L 1123.49 118.86   A 3.18 3.18 0.0 0 1 1121.68 124.66   Z"></path>
  <path fill="#0c3f8d" d="   M 479.84 156.01   L 1162.66 156.01   A 3.86 3.86 0.0 0 1 1165.46 157.22   L 1195.05 188.47   A 3.86 3.86 0.0 0 1 1192.25 194.98   L 450.26 194.99   A 3.86 3.86 0.0 0 1 447.45 188.48   L 477.04 157.22   A 3.86 3.86 0.0 0 1 479.84 156.01   Z"></path>
  <path fill="#0c3f8d" d="   M 421.23 226.47   L 1219.72 226.02   A 3.82 3.82 0.0 0 1 1222.94 227.77   L 1243.67 259.98   A 3.82 3.82 0.0 0 1 1240.46 265.87   L 400.68 266.10   A 3.82 3.82 0.0 0 1 397.46 260.21   L 418.02 228.22   A 3.82 3.82 0.0 0 1 421.23 226.47   Z"></path>
  <path fill="#0c3f8d" d="   M 821.09 296.80   Q 858.17 296.80 1259.25 297.02   Q 1262.54 297.02 1263.76 300.00   Q 1276.17 330.50 1276.78 331.76   Q 1277.70 333.69 1277.39 335.45   A 2.25 2.25 0.0 0 1 1275.20 337.32   Q 1268.00 337.39 1260.50 337.40   Q 1237.45 337.47 821.09 337.40   Q 404.72 337.33 381.67 337.25   Q 374.17 337.24 366.97 337.17   A 2.25 2.25 0.0 0 1 364.78 335.30   Q 364.47 333.54 365.39 331.61   Q 366.00 330.35 378.42 299.85   Q 379.64 296.87 382.93 296.87   Q 784.01 296.79 821.09 296.80   Z"></path>
  <path fill="#0c3f8d" d="   M 1200.26 386.26   Q 1200.89 386.48 1201.75 386.51   Q 1206.46 386.67 1284.38 386.60   Q 1289.48 386.60 1291.42 387.81   Q 1294.83 389.95 1295.45 394.55   Q 1296.26 400.58 1296.55 405.50   Q 1296.79 409.75 1292.19 409.73   Q 1275.80 409.65 349.61 409.68   Q 344.31 409.68 345.51 404.25   Q 351.47 377.23 351.84 375.48   Q 352.61 371.87 354.07 370.08   Q 355.31 368.56 358.12 368.53   Q 386.35 368.21 609.52 368.33   Q 612.69 368.33 613.97 369.13   C 616.28 370.55 616.21 373.05 615.45 375.56   Q 614.40 379.05 614.36 381.99   C 614.31 385.31 617.68 385.83 620.26 385.75   Q 660.08 384.52 706.27 386.29   Q 709.15 386.40 710.45 384.07   Q 711.07 382.96 710.97 379.92   C 710.86 376.47 710.77 372.81 711.91 369.66   A 2.05 2.04 10.0 0 1 713.83 368.32   L 1199.29 368.32   A 2.07 2.06 4.0 0 1 1201.34 370.67   L 1199.36 384.80   A 1.35 1.35 0.0 0 0 1200.26 386.26   Z"></path>
  <path fill="#0c3f8d" d="   M 520.24 458.59   Q 520.76 459.01 522.76 459.01   Q 559.39 459.13 609.97 458.76   A 3.32 3.31 1.4 0 0 613.25 455.64   L 613.97 443.41   A 3.03 3.02 -88.1 0 1 617.01 440.56   Q 697.51 441.02 706.53 441.25   C 710.09 441.34 713.63 440.85 713.35 445.26   Q 712.99 450.98 713.31 456.09   A 3.13 3.11 -1.6 0 0 716.42 459.02   Q 758.86 459.07 801.89 459.02   Q 801.94 459.02 803.61 459.12   Q 806.06 459.28 807.22 457.58   Q 807.90 456.58 808.08 454.20   Q 808.58 447.45 808.88 443.53   Q 809.11 440.62 812.03 440.62   Q 926.70 440.65 1097.53 440.57   Q 1100.32 440.57 1102.76 440.76   C 1105.73 441.00 1105.87 443.44 1105.61 446.26   Q 1105.15 451.32 1105.09 456.30   A 2.81 2.81 0.0 0 0 1107.90 459.14   Q 1165.86 459.02 1194.51 458.83   C 1197.40 458.81 1199.73 458.72 1199.78 455.25   Q 1199.86 450.12 1199.86 444.18   Q 1199.86 440.61 1203.43 440.61   L 1299.55 440.61   Q 1302.32 440.61 1302.65 443.36   Q 1304.36 457.95 1305.99 472.50   Q 1306.31 475.34 1305.95 477.41   A 2.15 2.14 -85.0 0 1 1303.84 479.19   L 337.58 479.19   A 2.63 2.61 -8.8 0 1 335.08 477.37   Q 334.56 475.74 334.93 473.34   Q 336.71 461.52 339.32 443.38   Q 339.66 440.98 341.41 440.51   Q 341.75 440.42 344.57 440.39   Q 369.65 440.15 393.01 440.43   Q 405.41 440.58 413.00 440.58   Q 465.31 440.58 515.40 440.89   Q 516.63 440.90 518.04 441.40   A 1.02 1.00 1.4 0 1 518.66 442.04   Q 519.27 443.98 519.19 446.06   Q 519.13 447.54 518.95 455.74   Q 518.92 457.53 520.24 458.59   Z"></path>
  <path fill="#0c3f8d" d="   M 1004.76 526.74   A 1.00 1.00 0.0 0 0 1005.75 527.84   L 1098.00 527.84   Q 1100.85 527.84 1100.85 524.98   L 1100.85 513.28   Q 1100.85 510.04 1104.10 510.04   Q 1169.67 509.96 1301.51 510.03   Q 1306.48 510.03 1306.10 515.25   Q 1305.02 529.95 1303.86 544.32   Q 1303.56 548.08 1300.91 549.46   Q 1299.55 550.16 1295.67 550.16   Q 819.21 550.16 342.75 550.16   Q 342.05 550.16 340.65 549.55   C 338.79 548.74 338.44 546.07 338.21 544.02   Q 336.02 524.00 334.94 515.57   Q 334.63 513.14 335.12 511.59   A 2.24 2.24 0.0 0 1 337.26 510.02   L 417.88 510.02   A 2.09 2.08 84.2 0 1 419.92 511.69   C 420.69 515.47 420.32 518.51 420.01 523.78   C 419.79 527.48 423.36 527.23 426.25 527.24   Q 469.00 527.32 511.75 527.22   C 513.12 527.21 514.02 526.80 514.51 525.45   Q 515.49 522.78 515.53 520.03   Q 515.58 515.94 515.47 513.29   Q 515.35 510.26 518.90 510.22   Q 547.69 509.87 811.06 510.03   A 2.29 2.28 -85.9 0 1 813.32 512.65   Q 812.43 518.85 811.81 524.29   Q 811.63 525.84 811.87 526.46   A 2.14 2.00 78.6 0 0 813.77 527.82   L 903.27 527.85   Q 906.19 527.85 906.60 524.95   L 908.34 512.47   Q 908.68 510.06 911.12 510.05   Q 961.23 509.93 1003.03 510.05   Q 1004.50 510.05 1005.49 510.66   Q 1005.93 510.93 1006.06 511.42   Q 1006.54 513.23 1006.31 514.77   Q 1005.16 522.52 1004.76 526.74   Z"></path>
  <path fill="#0c3f8d" d="   M 417.06 598.80   Q 418.43 597.84 418.25 595.50   Q 417.92 591.07 417.11 583.56   A 1.04 1.04 0.0 0 1 418.04 582.41   Q 420.80 582.12 422.51 582.10   Q 497.37 581.56 560.50 581.65   C 566.53 581.66 572.57 581.31 577.83 581.31   Q 716.95 581.27 828.00 581.30   Q 829.06 581.30 834.50 581.35   Q 877.34 581.78 906.79 581.66   A 1.89 1.89 0.0 0 1 908.69 583.55   L 908.69 596.96   Q 908.69 599.81 911.53 599.81   Q 960.77 599.87 999.01 599.84   Q 1004.12 599.84 1004.24 595.07   Q 1004.40 589.03 1004.33 583.64   A 2.31 2.31 0.0 0 1 1006.64 581.30   L 1297.16 581.30   Q 1297.90 581.30 1297.92 582.03   Q 1297.94 582.71 1297.76 583.50   Q 1293.70 601.46 1289.40 619.97   Q 1289.16 620.99 1288.11 620.99   Q 1137.12 620.96 368.25 621.02   Q 363.93 621.02 357.79 620.96   Q 354.14 620.92 352.64 619.91   C 350.41 618.40 350.49 615.96 350.13 613.45   Q 349.83 611.31 348.82 602.06   Q 348.73 601.18 348.82 600.92   Q 349.19 599.84 350.30 599.84   Q 402.16 599.82 412.75 599.94   Q 415.38 599.97 417.06 598.80   Z"></path>
  <path fill="#0c3f8d" d="   M 1261.17 693.71   L 379.83 693.72   A 2.89 2.89 0.0 0 1 377.15 691.89   L 362.93 655.96   A 2.89 2.89 0.0 0 1 365.62 652.01   L 1275.38 652.01   A 2.89 2.89 0.0 0 1 1278.07 655.96   L 1263.85 691.88   A 2.89 2.89 0.0 0 1 1261.17 693.71   Z"></path>
  <path fill="#0c3f8d" d="   M 397.19 725.65   L 1244.80 725.64   A 1.79 1.79 0.0 0 1 1246.33 728.36   L 1225.68 762.53   A 1.79 1.79 0.0 0 1 1224.15 763.39   L 417.83 763.40   A 1.79 1.79 0.0 0 1 416.30 762.54   L 395.66 728.37   A 1.79 1.79 0.0 0 1 397.19 725.65   Z"></path>
  <path fill="#0c3f8d" d="   M 1165.53 835.19   L 476.22 835.18   A 2.88 2.88 0.0 0 1 474.07 834.22   L 442.79 799.15   A 2.88 2.88 0.0 0 1 444.94 794.35   L 1196.81 794.36   A 2.88 2.88 0.0 0 1 1198.96 799.16   L 1167.68 834.23   A 2.88 2.88 0.0 0 1 1165.53 835.19   Z"></path>
  <path fill="#0c3f8d" d="   M 1076.75 906.58   L 565.76 906.74   A 3.25 3.25 0.0 0 1 563.89 906.15   L 515.28 872.10   A 3.25 3.25 0.0 0 1 517.14 866.18   L 1125.63 865.79   A 3.25 3.25 0.0 0 1 1127.50 871.70   L 1078.62 905.99   A 3.25 3.25 0.0 0 1 1076.75 906.58   Z"></path>
  <path fill="#0c3f8d" d="   M 820.89 938.83   Q 928.53 938.84 938.53 938.80   Q 967.99 938.68 1002.29 936.94   C 1004.32 936.84 1007.03 937.44 1007.61 939.78   C 1008.29 942.57 1006.60 943.59 1004.21 944.49   Q 926.60 973.41 843.87 980.38   Q 834.33 981.18 820.89 981.18   Q 807.44 981.18 797.90 980.37   Q 715.18 973.38 637.58 944.43   C 635.19 943.53 633.50 942.51 634.18 939.72   C 634.76 937.38 637.47 936.78 639.50 936.89   Q 673.80 938.64 703.26 938.76   Q 713.26 938.81 820.89 938.83   Z"></path>
  <path fill="#0c3f8d" d="   M 673.32 1229.76   Q 668.08 1198.97 660.08 1147.87   Q 659.22 1142.37 661.08 1138.61   C 662.59 1135.57 665.70 1132.82 667.86 1130.51   Q 677.16 1120.61 686.25 1111.24   Q 687.82 1109.62 689.31 1108.94   Q 689.80 1108.72 690.30 1108.91   Q 692.08 1109.57 692.41 1112.33   Q 697.52 1155.28 696.10 1198.50   Q 695.53 1215.85 689.47 1231.95   Q 687.50 1237.19 685.48 1240.47   Q 684.64 1241.83 682.50 1242.24   Q 677.98 1243.10 675.90 1239.09   Q 674.42 1236.24 673.32 1229.76   Z"></path>
  <path fill="#0c3f8d" d="   M 347.68 1197.72   C 347.92 1197.16 348.21 1196.70 348.38 1196.10   Q 349.78 1191.20 351.98 1184.49   Q 355.81 1172.80 367.52 1168.27   C 374.67 1165.50 381.99 1166.00 388.38 1170.35   Q 393.65 1173.93 396.68 1177.87   Q 410.34 1195.65 408.10 1217.79   Q 407.32 1225.58 402.33 1231.34   C 395.12 1239.68 380.56 1249.29 370.25 1240.09   Q 364.78 1235.21 361.88 1232.49   Q 358.95 1229.73 356.00 1231.74   C 354.70 1232.63 352.88 1236.01 351.57 1237.41   Q 346.57 1242.78 337.75 1242.81   Q 329.44 1242.83 321.85 1240.83   Q 312.96 1238.48 309.08 1234.61   C 301.82 1227.36 300.30 1215.96 300.14 1205.93   Q 299.63 1173.99 297.38 1135.77   Q 297.11 1131.21 301.07 1127.81   Q 312.03 1118.40 322.88 1110.64   C 324.02 1109.83 325.33 1109.15 326.82 1109.30   Q 329.91 1109.60 329.92 1112.95   Q 330.02 1140.17 329.94 1193.25   C 329.93 1197.52 331.47 1200.17 335.70 1201.02   Q 341.98 1202.28 346.90 1198.83   Q 347.35 1198.51 347.68 1197.72   Z   M 389.1324 1214.8689   A 13.88 7.84 73.8 0 0 392.7887 1199.3527   A 13.88 7.84 73.8 0 0 381.3876 1188.2111   A 13.88 7.84 73.8 0 0 377.7313 1203.7273   A 13.88 7.84 73.8 0 0 389.1324 1214.8689   Z"></path>
  <path fill="#0c3f8d" d="   M 924.04 1230.79   C 921.92 1230.63 919.62 1234.25 917.29 1237.04   Q 913.09 1242.06 906.03 1242.48   Q 898.35 1242.92 893.38 1242.40   C 880.87 1241.09 869.98 1234.66 865.96 1222.59   Q 864.79 1219.08 864.27 1214.95   Q 863.87 1211.76 863.86 1207.09   Q 863.79 1169.98 860.36 1133.41   Q 860.03 1129.85 863.01 1127.77   Q 869.85 1123.01 888.00 1110.49   Q 889.88 1109.19 891.77 1109.70   A 1.87 1.87 0.0 0 1 893.15 1111.49   Q 893.23 1138.78 893.15 1190.36   Q 893.14 1194.71 894.46 1197.05   C 896.18 1200.10 901.69 1201.56 904.82 1201.55   C 910.79 1201.55 914.18 1197.26 915.53 1191.87   C 919.22 1177.26 925.84 1165.32 943.23 1166.94   Q 951.78 1167.74 957.27 1172.24   C 969.14 1181.98 974.43 1200.56 973.85 1215.18   C 973.34 1227.67 964.77 1237.39 953.29 1242.02   Q 943.65 1245.90 935.42 1239.39   Q 931.69 1236.44 926.12 1231.65   A 3.56 3.52 67.1 0 0 924.04 1230.79   Z   M 955.6167 1214.4521   A 14.23 7.90 70.6 0 0 958.3415 1198.4059   A 14.23 7.90 70.6 0 0 946.1633 1187.6079   A 14.23 7.90 70.6 0 0 943.4385 1203.6541   A 14.23 7.90 70.6 0 0 955.6167 1214.4521   Z"></path>
  <rect fill="#0c3f8d" x="-11.49" y="-11.49" transform="translate(625.18,1125.29) rotate(-44.7)" width="22.98" height="22.98" rx="7.61"></rect>
  <path fill="#0c3f8d" d="   M 1342.19 1199.20   Q 1343.02 1200.64 1344.73 1200.63   Q 1345.78 1200.62 1375.81 1200.58   C 1380.34 1200.58 1383.25 1195.46 1379.53 1192.12   Q 1355.09 1170.22 1353.88 1169.13   Q 1351.69 1167.15 1351.92 1163.06   Q 1352.08 1160.14 1354.74 1142.24   Q 1355.74 1135.48 1361.65 1133.45   Q 1408.65 1117.30 1421.37 1113.20   Q 1422.83 1112.74 1423.62 1112.51   Q 1424.96 1112.14 1425.93 1112.45   Q 1428.96 1113.42 1428.68 1116.53   Q 1428.23 1121.58 1425.56 1138.82   Q 1424.41 1146.26 1418.16 1148.42   Q 1399.79 1154.77 1392.69 1157.15   Q 1390.69 1157.82 1389.50 1158.95   A 1.88 1.87 -42.2 0 0 1389.37 1161.53   C 1392.56 1165.26 1395.75 1168.91 1397.91 1172.77   Q 1406.73 1188.52 1405.70 1205.96   C 1405.24 1213.80 1401.32 1221.91 1396.00 1227.66   Q 1390.70 1233.39 1383.28 1237.75   Q 1378.97 1240.29 1375.57 1241.01   Q 1361.50 1243.97 1346.56 1242.74   C 1337.65 1242.01 1330.80 1236.68 1326.35 1229.24   A 1.20 1.19 57.1 0 0 1324.64 1228.87   Q 1299.90 1246.13 1269.79 1247.33   Q 1254.11 1247.95 1240.98 1244.27   C 1215.69 1237.18 1214.03 1208.68 1217.81 1187.05   C 1218.65 1182.29 1220.84 1175.35 1225.64 1174.18   Q 1228.69 1173.44 1230.88 1175.18   Q 1232.43 1176.42 1233.17 1180.21   Q 1233.54 1182.13 1234.10 1185.74   C 1235.41 1194.15 1238.91 1201.41 1247.52 1204.24   Q 1252.81 1205.98 1258.50 1206.46   C 1275.25 1207.90 1291.77 1207.50 1306.73 1202.13   Q 1324.13 1195.90 1336.73 1181.76   Q 1338.16 1180.15 1340.47 1180.31   Q 1345.33 1180.66 1346.00 1185.31   C 1346.66 1189.90 1344.58 1194.41 1342.20 1198.44   A 0.75 0.74 -44.6 0 0 1342.19 1199.20   Z"></path>
  <path fill="#0c3f8d" d="   M 1131.01 1114.81   L 1136.28 1120.12   A 7.72 7.72 0.0 0 1 1136.78 1130.43   L 1132.02 1136.29   A 7.72 7.72 0.0 0 1 1120.44 1136.75   L 1115.20 1131.25   A 7.72 7.72 0.0 0 1 1114.86 1120.97   L 1119.60 1115.29   A 7.72 7.72 0.0 0 1 1131.01 1114.81   Z"></path>
  <path fill="#0c3f8d" d="   M 159.61 1224.32   Q 159.28 1224.37 158.54 1225.04   Q 153.81 1229.35 150.03 1232.79   C 140.87 1241.14 130.19 1243.35 117.99 1243.90   C 101.56 1244.63 88.26 1245.32 74.92 1243.28   Q 62.63 1241.40 56.02 1237.36   C 34.44 1224.15 37.00 1195.52 45.11 1175.32   Q 46.44 1172.02 49.76 1171.96   Q 55.19 1171.86 56.19 1177.34   Q 56.24 1177.65 57.83 1186.72   Q 59.19 1194.42 65.89 1198.18   Q 74.24 1202.86 85.31 1203.40   Q 108.51 1204.54 133.52 1201.78   C 135.25 1201.59 136.57 1201.00 137.09 1199.36   Q 137.66 1197.57 136.53 1196.36   Q 130.77 1190.20 121.00 1180.45   Q 116.59 1176.04 112.68 1171.33   Q 110.34 1168.50 109.24 1162.95   Q 108.67 1160.07 109.77 1154.30   Q 111.40 1145.86 113.58 1139.82   Q 115.52 1134.43 121.49 1132.68   Q 150.07 1124.30 177.68 1114.41   Q 179.36 1113.81 181.51 1113.85   C 185.05 1113.91 185.91 1117.25 185.68 1120.26   Q 185.06 1128.24 184.32 1136.29   Q 183.56 1144.61 177.68 1148.48   Q 176.24 1149.42 165.66 1153.09   Q 147.78 1159.29 146.48 1159.77   C 143.32 1160.94 141.72 1162.78 144.58 1166.00   Q 150.27 1172.42 162.11 1185.07   Q 169.06 1192.50 176.90 1197.11   C 186.69 1202.87 198.25 1202.44 208.59 1197.78   Q 210.27 1197.03 211.08 1195.06   Q 214.08 1187.72 215.85 1182.90   Q 216.55 1180.98 218.32 1179.83   C 224.09 1176.08 227.14 1181.72 228.25 1186.50   Q 229.09 1190.06 230.18 1195.07   C 230.72 1197.56 233.30 1198.41 235.73 1198.76   Q 256.80 1201.79 259.94 1202.33   Q 262.94 1202.84 264.02 1202.05   Q 266.17 1200.46 265.95 1197.73   C 265.82 1196.09 264.73 1193.48 263.49 1192.23   Q 260.82 1189.53 254.15 1183.31   C 249.88 1179.33 250.92 1176.66 253.80 1172.45   Q 258.42 1165.68 265.71 1155.13   Q 267.16 1153.02 268.72 1152.40   Q 271.31 1151.37 273.36 1153.27   Q 274.82 1154.62 277.27 1159.47   Q 293.47 1191.44 281.46 1225.05   Q 278.89 1232.24 272.07 1236.35   Q 263.42 1241.55 253.01 1242.01   Q 244.27 1242.39 237.52 1241.89   Q 235.27 1241.72 233.53 1240.23   Q 229.56 1236.82 225.15 1232.70   Q 223.79 1231.43 222.33 1232.59   Q 216.49 1237.22 210.79 1239.75   C 197.18 1245.78 180.41 1242.41 169.36 1232.44   Q 165.57 1229.02 161.86 1225.31   Q 160.72 1224.17 159.61 1224.32   Z"></path>
  <path fill="#0c3f8d" d="   M 1554.70 1149.82   A 1.77 1.77 0.0 0 0 1552.24 1150.07   C 1549.38 1153.53 1545.36 1158.75 1540.95 1157.73   Q 1535.95 1156.57 1533.37 1152.21   Q 1528.70 1144.35 1535.48 1139.00   Q 1535.76 1138.78 1541.79 1134.07   Q 1543.54 1132.71 1543.24 1129.74   Q 1542.32 1120.47 1549.83 1115.56   C 1551.87 1114.24 1553.56 1114.92 1555.87 1115.86   C 1561.41 1118.12 1564.77 1123.39 1563.44 1129.49   Q 1563.03 1131.39 1562.86 1133.02   A 2.29 2.28 14.2 0 0 1564.28 1135.39   C 1570.32 1137.83 1576.58 1141.39 1574.91 1148.96   Q 1573.51 1155.32 1567.97 1157.26   Q 1562.55 1159.16 1559.04 1154.52   Q 1556.66 1151.37 1554.70 1149.82   Z   M 1557.69 1135.84   L 1548.83 1134.83   A 1.29 1.29 0.0 0 0 1547.40 1135.96   L 1547.38 1136.12   A 5.83 5.75 -83.5 0 0 1552.44 1142.57   L 1552.44 1142.57   A 5.83 5.75 -83.5 0 0 1558.81 1137.42   L 1558.83 1137.27   A 1.29 1.29 0.0 0 0 1557.69 1135.84   Z"></path>
  <rect fill="#0c3f8d" x="-11.51" y="-11.51" transform="translate(579.09,1128.86) rotate(-43.7)" width="23.02" height="23.02" rx="7.39"></rect>
  <path fill="#0c3f8d" d="   M 268.45 1133.11   A 1.13 1.07 34.3 0 0 267.32 1133.29   L 260.01 1139.69   A 2.81 2.79 22.1 0 1 258.38 1140.37   Q 253.00 1140.80 249.30 1136.71   Q 245.38 1132.38 245.70 1126.75   C 245.97 1122.03 249.11 1117.49 254.28 1118.06   Q 260.91 1118.78 266.38 1122.52   A 2.21 2.19 48.1 0 0 268.65 1122.65   Q 271.37 1121.23 274.12 1119.47   Q 276.59 1117.88 278.39 1118.05   C 285.70 1118.76 291.28 1124.25 288.04 1131.87   Q 285.19 1138.59 278.26 1141.28   Q 277.07 1141.75 275.96 1140.68   Q 274.76 1139.53 269.50 1133.94   Q 268.88 1133.28 268.45 1133.11   Z"></path>
  <path fill="#0c3f8d" d="   M 1035.06 1198.60   Q 1034.75 1197.50 1034.47 1196.86   Q 1026.69 1178.88 1021.51 1167.46   Q 1019.73 1163.53 1022.43 1160.45   Q 1036.40 1144.54 1037.38 1143.40   Q 1039.39 1141.07 1042.08 1142.48   Q 1043.78 1143.38 1044.82 1146.04   Q 1045.09 1146.73 1059.78 1186.09   Q 1062.63 1193.75 1064.95 1196.27   Q 1069.21 1200.92 1076.28 1200.96   Q 1099.46 1201.08 1122.83 1200.14   Q 1125.22 1200.04 1126.70 1197.68   Q 1126.97 1197.26 1126.85 1196.77   Q 1126.55 1195.52 1125.02 1194.56   Q 1115.56 1188.66 1104.57 1186.40   C 1101.27 1185.72 1099.04 1187.57 1094.17 1189.68   Q 1089.65 1191.63 1084.77 1192.03   C 1077.89 1192.58 1079.70 1184.76 1081.63 1180.94   Q 1087.53 1169.24 1095.53 1160.50   Q 1103.75 1151.51 1116.01 1154.12   Q 1120.86 1155.15 1125.93 1157.92   Q 1130.22 1160.27 1153.03 1172.63   Q 1159.85 1176.33 1175.11 1180.10   Q 1178.67 1180.98 1179.92 1182.43   Q 1181.89 1184.72 1180.45 1188.48   Q 1177.23 1196.94 1173.81 1205.32   C 1172.36 1208.89 1169.79 1210.23 1165.90 1210.77   Q 1163.65 1211.08 1158.68 1211.67   C 1151.75 1212.50 1144.78 1216.49 1138.85 1221.03   Q 1133.92 1224.80 1126.15 1230.40   Q 1116.42 1237.40 1105.33 1240.08   Q 1087.10 1244.48 1069.50 1242.55   C 1061.27 1241.64 1054.15 1236.35 1050.23 1228.48   C 1048.81 1225.62 1047.36 1222.28 1043.88 1223.56   Q 1042.70 1224.00 1041.27 1226.13   Q 1038.28 1230.59 1036.39 1232.91   Q 1025.55 1246.23 1008.02 1245.11   C 997.03 1244.40 989.07 1236.38 986.10 1226.19   Q 982.46 1213.69 984.56 1201.03   C 985.32 1196.41 988.57 1186.89 994.00 1186.34   Q 998.11 1185.92 999.47 1190.06   Q 999.61 1190.50 1002.35 1198.40   Q 1005.17 1206.55 1013.87 1205.62   Q 1021.04 1204.85 1030.15 1203.68   Q 1033.95 1203.19 1034.90 1200.16   Q 1035.22 1199.13 1035.06 1198.60   Z"></path>
  <path fill="#0c3f8d" d="   M 1275.98 1159.66   Q 1274.55 1159.67 1273.82 1160.59   Q 1271.68 1163.29 1269.31 1166.03   Q 1266.94 1168.79 1263.82 1167.71   C 1252.01 1163.62 1250.07 1147.98 1263.79 1144.57   C 1265.72 1144.10 1266.63 1144.01 1268.39 1145.36   Q 1271.26 1147.57 1274.27 1149.56   Q 1275.03 1150.06 1275.89 1150.06   Q 1276.76 1150.05 1277.51 1149.53   Q 1280.48 1147.49 1283.32 1145.23   C 1285.05 1143.85 1285.96 1143.92 1287.90 1144.36   C 1301.68 1147.53 1300.01 1163.20 1288.27 1167.50   Q 1285.17 1168.63 1282.75 1165.91   Q 1280.34 1163.21 1278.15 1160.55   Q 1277.40 1159.65 1275.98 1159.66   Z"></path>
  <path fill="#0c3f8d" d="   M 782.70 1149.58   Q 783.49 1149.59 783.82 1149.34   C 788.79 1145.70 795.59 1142.52 800.78 1147.05   C 808.20 1153.53 804.04 1163.19 796.63 1167.12   C 792.02 1169.57 787.64 1165.35 785.03 1161.66   Q 784.12 1160.38 782.55 1160.36   Q 780.98 1160.34 780.04 1161.59   C 777.33 1165.21 772.84 1169.31 768.30 1166.74   C 761.00 1162.62 757.10 1152.85 764.69 1146.57   C 769.99 1142.18 776.71 1145.54 781.58 1149.31   Q 781.90 1149.57 782.70 1149.58   Z"></path>
  <path fill="#0c3f8d" d="   M 601.59 1200.69   Q 613.77 1201.02 623.50 1200.78   C 625.67 1200.72 626.77 1200.98 627.94 1199.52   Q 629.85 1197.12 627.24 1194.33   Q 624.68 1191.60 617.64 1183.53   C 613.47 1178.76 613.21 1176.93 616.65 1171.84   Q 619.71 1167.31 627.50 1156.01   Q 629.79 1152.69 631.20 1152.19   Q 633.51 1151.36 635.67 1152.83   Q 636.84 1153.63 638.21 1156.04   Q 653.96 1183.72 647.59 1214.80   Q 645.35 1225.76 641.17 1230.70   Q 635.30 1237.64 625.80 1240.31   Q 616.50 1242.92 606.36 1242.78   Q 600.32 1242.69 595.91 1241.00   Q 590.86 1239.05 586.68 1235.42   Q 582.26 1231.57 581.99 1231.37   C 578.37 1228.64 575.96 1231.81 572.28 1234.51   Q 560.91 1242.88 545.83 1242.46   Q 543.61 1242.40 543.27 1245.32   Q 541.31 1262.53 534.55 1276.03   Q 532.84 1279.44 529.50 1283.01   C 525.20 1287.60 521.37 1287.54 514.53 1287.65   Q 495.88 1287.95 478.26 1287.29   Q 476.93 1287.24 475.87 1286.87   Q 475.37 1286.70 475.19 1286.20   C 473.58 1281.79 473.29 1276.78 477.96 1274.32   Q 497.28 1264.17 513.51 1253.25   Q 518.47 1249.91 522.93 1246.19   Q 523.88 1245.40 524.07 1243.26   Q 524.11 1242.73 523.71 1242.39   Q 522.06 1240.96 521.00 1241.15   Q 515.16 1242.17 513.50 1242.29   C 505.00 1242.93 497.41 1240.63 493.38 1232.64   Q 489.50 1224.95 489.93 1214.07   Q 490.43 1201.27 494.96 1189.73   C 497.68 1182.80 502.67 1174.83 509.53 1171.71   C 525.07 1164.66 535.49 1180.27 539.83 1192.45   Q 540.49 1194.32 541.42 1197.22   C 542.41 1200.35 544.28 1202.21 547.49 1202.14   C 550.16 1202.08 554.79 1201.88 554.65 1198.52   Q 554.34 1191.20 554.34 1188.78   C 554.37 1176.50 559.75 1166.30 569.08 1158.61   Q 574.94 1153.78 580.02 1152.65   C 588.84 1150.70 595.55 1155.01 600.15 1162.59   Q 607.25 1174.29 604.35 1188.49   Q 603.46 1192.86 600.76 1199.41   A 0.93 0.92 12.2 0 0 601.59 1200.69   Z   M 585.96 1182.08   L 572.55 1182.57   A 2.96 2.96 0.0 0 0 569.70 1185.64   L 569.78 1187.76   A 9.44 9.19 87.9 0 0 579.31 1196.85   L 580.27 1196.82   A 9.44 9.19 87.9 0 0 589.10 1187.05   L 589.03 1184.93   A 2.96 2.96 0.0 0 0 585.96 1182.08   Z   M 522.5011 1206.8920   A 7.77 5.25 4.0 0 0 515.1162 1201.1128   A 7.77 5.25 4.0 0 0 506.9989 1205.8080   A 7.77 5.25 4.0 0 0 514.3838 1211.5872   A 7.77 5.25 4.0 0 0 522.5011 1206.8920   Z"></path>
  <path fill="#0c3f8d" d="   M 829.41 1200.00   Q 830.66 1197.44 828.80 1195.06   C 825.81 1191.24 823.00 1189.33 819.16 1187.09   Q 816.74 1185.67 816.15 1184.14   Q 815.00 1181.17 816.33 1178.85   Q 822.07 1168.84 827.84 1158.85   Q 828.90 1157.02 829.77 1156.23   C 831.99 1154.21 835.60 1154.56 837.47 1156.83   Q 853.39 1176.17 850.98 1200.50   Q 848.85 1222.08 831.37 1234.60   Q 824.62 1239.43 815.67 1241.12   Q 791.95 1245.57 769.88 1244.02   Q 757.78 1243.17 747.15 1238.55   Q 738.54 1234.80 733.17 1226.11   C 729.07 1219.48 728.35 1210.54 728.31 1201.54   Q 728.26 1191.43 730.79 1183.09   C 731.95 1179.25 735.17 1172.96 739.28 1171.73   C 743.03 1170.61 745.25 1173.71 745.64 1177.10   Q 745.66 1177.25 748.43 1191.03   C 748.62 1191.96 749.31 1193.78 750.10 1194.54   C 757.63 1201.81 765.33 1202.71 775.77 1203.31   Q 802.79 1204.86 827.62 1201.38   Q 828.82 1201.21 829.41 1200.00   Z"></path>
  <path fill="#0c3f8d" d="   M 1496.89 1242.39   Q 1496.51 1243.10 1496.41 1244.07   Q 1494.96 1257.86 1489.10 1270.04   C 1486.52 1275.39 1484.44 1279.62 1480.93 1283.67   C 1477.50 1287.61 1472.90 1288.22 1467.25 1288.09   Q 1448.09 1287.65 1429.19 1287.09   C 1426.29 1287.00 1423.91 1284.05 1423.84 1281.16   Q 1423.75 1277.82 1427.45 1275.68   Q 1452.01 1261.49 1473.60 1244.85   Q 1475.69 1243.24 1477.41 1240.44   Q 1479.69 1236.73 1476.54 1232.91   Q 1474.44 1230.37 1469.09 1225.41   Q 1464.92 1221.55 1460.25 1214.98   C 1457.67 1211.35 1459.01 1209.76 1461.11 1205.93   Q 1470.56 1188.74 1472.63 1184.99   A 3.08 3.08 0.0 0 1 1477.55 1184.35   Q 1483.21 1190.27 1487.70 1194.12   C 1491.64 1197.50 1500.83 1203.09 1506.08 1201.15   Q 1509.54 1199.87 1510.85 1197.34   Q 1512.35 1194.45 1516.05 1187.10   Q 1518.15 1182.91 1521.36 1181.34   C 1524.37 1179.87 1527.16 1184.82 1528.05 1187.22   Q 1530.25 1193.09 1532.19 1199.06   C 1532.86 1201.15 1535.08 1201.39 1537.17 1201.32   C 1543.48 1201.11 1544.89 1195.19 1546.27 1189.97   Q 1547.48 1185.35 1548.81 1183.78   C 1550.97 1181.23 1557.30 1180.24 1558.56 1184.77   Q 1558.83 1185.76 1560.45 1191.91   C 1562.03 1197.90 1565.62 1203.58 1572.22 1203.09   C 1576.58 1202.76 1579.01 1198.38 1577.57 1194.50   Q 1575.17 1188.04 1574.72 1185.79   C 1573.49 1179.65 1578.93 1173.87 1584.16 1171.61   Q 1588.67 1169.66 1590.36 1174.58   Q 1600.97 1205.54 1583.90 1233.44   C 1579.85 1240.07 1570.11 1246.74 1562.61 1240.24   Q 1559.26 1237.34 1555.24 1233.83   A 3.28 3.28 0.0 0 0 1550.93 1233.82   Q 1548.59 1235.83 1545.87 1238.61   Q 1537.84 1246.77 1528.97 1239.73   Q 1523.67 1235.53 1523.34 1235.32   Q 1520.55 1233.54 1517.99 1235.46   Q 1517.72 1235.67 1514.01 1238.73   C 1509.11 1242.77 1503.67 1242.49 1497.97 1241.83   A 1.08 1.08 0.0 0 0 1496.89 1242.39   Z"></path>
  <path fill="#0c3f8d" d="   M 456.11 1240.61   C 457.54 1238.36 457.80 1235.90 456.14 1233.71   Q 454.96 1232.15 440.86 1216.36   Q 438.76 1214.01 438.92 1210.20   Q 439.01 1207.88 440.92 1204.75   C 445.22 1197.71 449.10 1190.72 452.33 1185.36   Q 453.32 1183.70 454.92 1183.27   A 1.35 1.34 51.4 0 1 455.88 1183.38   Q 458.33 1184.69 460.46 1187.13   C 473.73 1202.36 476.97 1221.15 476.14 1240.85   Q 475.63 1253.05 473.19 1260.55   Q 468.93 1273.71 459.74 1284.51   Q 456.61 1288.19 451.51 1288.07   Q 431.77 1287.60 412.03 1287.44   Q 408.59 1287.42 407.28 1286.66   C 402.35 1283.82 403.43 1277.09 408.09 1274.58   Q 418.57 1268.94 424.20 1265.70   Q 435.58 1259.16 446.97 1249.47   Q 454.58 1243.01 456.11 1240.61   Z"></path>
  <path fill="#0c3f8d" d="   M 219.75 1263.80   C 222.36 1263.34 226.29 1259.39 228.13 1257.38   Q 229.01 1256.41 230.99 1256.62   C 238.56 1257.40 243.57 1263.07 241.30 1270.78   C 240.15 1274.72 236.74 1279.06 232.29 1279.01   C 228.06 1278.97 226.34 1275.89 223.86 1272.44   Q 223.12 1271.41 221.38 1271.72   C 218.77 1272.17 214.84 1276.12 213.00 1278.13   Q 212.12 1279.10 210.14 1278.89   C 202.57 1278.11 197.56 1272.44 199.83 1264.73   C 200.98 1260.79 204.39 1256.45 208.84 1256.50   C 213.07 1256.54 214.79 1259.62 217.27 1263.07   Q 218.01 1264.10 219.75 1263.80   Z"></path>
</svg>
