<svg width="534" height="139" viewBox="0 0 534 139" fill="none" xmlns="http://www.w3.org/2000/svg">
<g clip-path="url(#clip0_744_663)">
<path d="M39.7054 1.2696C34.9753 5.49922 7.04327 33.7288 2.31315 38.2653C1.57937 39.0053 1.03359 40.2507 0.712185 41.2856C0.518129 41.9354 0.487808 42.525 0.506 43.0605C0.506 43.7704 0.506 44.9376 0.506 46.4778C0.506 70.183 0.499936 127.364 0.506 133.706C0.566643 134.819 1.4399 136.87 2.56178 137.64C4.64183 139.427 7.57693 138.874 10.6636 138.97C14.6236 139.006 18.911 139.451 20.3846 134.927C21.9614 117.894 23.4592 76.4221 24.3264 68.017C24.7509 65.9835 25.8122 64.1243 27.4798 62.8188C28.4683 61.9223 30.0693 60.4843 31.9431 58.7877C36.079 55.0514 42.9861 48.8243 46.0971 46.0146C47.4131 44.8233 48.3894 44.0712 49.0686 42.5671C49.7053 41.2796 50.0631 39.8416 49.9964 38.4337C49.9904 36.0031 49.9782 26.3164 49.9661 21.3949C49.9722 17.1954 49.9358 11.4014 49.9419 7.97202C49.9237 6.87099 50.0025 6.20316 49.7539 5.11416C48.7775 0.463383 43.6168 -1.48597 39.7296 1.23952L39.6933 1.26358L39.7054 1.2696Z" fill="#00897B"/>
<path d="M53.0892 138.428C54.5083 138.826 56.0183 138.735 57.4919 138.801C61.2396 138.826 65.8545 139.529 68.0437 136.924C68.8624 135.871 68.7532 135.089 68.8927 133.675C69.0382 131.894 69.1777 130.18 69.3232 128.345C70.1359 117.515 71.6398 101.018 71.8763 95.8915C71.8035 94.8146 70.7241 93.5511 69.675 93.0036C68.5834 92.4079 67.4797 92.3418 66.0243 92.3297C63.8593 92.3297 60.8757 92.3237 58.5471 92.3297C55.1268 92.2575 52.6101 92.2696 51.1183 95.0913C50.8515 95.699 50.8515 96.1803 50.8394 96.782C50.7727 99.8865 50.4634 114.116 50.3118 121.059C50.2269 125.048 50.1602 128.134 50.0813 131.714C50.0995 133.002 49.8994 134.476 50.1117 135.631C50.4695 136.948 51.6762 138.001 53.0286 138.416L53.0953 138.434L53.0892 138.428Z" fill="#00897B"/>
<path d="M126.998 41.0508C142.42 41.0508 153.044 51.4053 153.044 67.0182C153.044 82.6311 142.056 92.9855 126.216 92.9855H113.299C112.669 92.9855 112.153 93.503 112.153 94.1407V113.382C112.153 115.325 110.595 116.901 108.666 116.901H99.9093C97.9809 116.901 96.4224 115.325 96.4224 113.382V44.5705C96.4224 42.6272 97.9809 41.0508 99.9093 41.0508H126.998ZM112.153 77.0598C112.153 79.0031 112.468 87.4323 112.153 93.4127L119.879 84.0751C121.541 82.0716 123.851 80.7178 126.404 80.2786C133.184 79.1114 137.053 74.4967 137.053 67.0603C137.053 58.4386 131.844 53.6073 122.832 53.6073H115.64C113.712 53.6073 112.153 55.1837 112.153 57.127V77.0538V77.0598Z" fill="#00897B"/>
<path d="M341.455 41.0268C356.876 41.0268 367.501 51.3812 367.501 66.9941C367.501 82.607 356.512 92.9615 340.673 92.9615H327.756C327.125 92.9615 326.61 93.4789 326.61 94.1167V113.358C326.61 115.301 325.051 116.877 323.123 116.877H314.366C312.437 116.877 310.879 115.301 310.879 113.358V44.5464C310.879 42.6031 312.437 41.0268 314.366 41.0268H341.455ZM326.61 77.0357C326.61 78.979 326.925 87.4082 326.61 93.3887L334.335 84.051C335.997 82.0475 338.308 80.6938 340.861 80.2546C347.64 79.0874 351.509 74.4727 351.509 67.0362C351.509 58.4145 346.3 53.5833 337.289 53.5833H330.097C328.168 53.5833 326.61 55.1596 326.61 57.1029V77.0297V77.0357Z" fill="#00897B"/>
<path d="M191.534 88.2927C188.169 81.0187 186.258 77.6374 180.14 77.6374H178.047C178.047 78.5459 178.047 90.7233 178.047 92.6667V113.382C178.047 115.325 176.489 116.901 174.56 116.901H165.804C163.875 116.901 162.317 115.325 162.317 113.382V44.5705C162.317 42.6272 163.875 41.0508 165.804 41.0508H193.099C210.394 41.0508 220.291 50.2501 220.291 65.2313C220.291 73.7387 216.464 81.2413 209.715 85.2723C208.084 86.247 207.441 88.2987 208.332 89.9893L219.763 111.733C220.994 114.08 219.315 116.901 216.683 116.901H206.804C205.494 116.901 204.293 116.161 203.699 114.982L193.432 92.3418M178.047 74.1177C178.047 76.061 178.047 75.7963 178.047 77.6374H191.589C199.509 77.6374 204.142 73.0648 204.142 65.5501C204.142 58.0355 199.248 53.4629 191.431 53.4629H181.528C179.6 53.4629 178.041 55.0393 178.041 56.9826V74.1237L178.047 74.1177Z" fill="#00897B"/>
<path d="M299.569 79.0392C299.806 96.2766 290.94 112.202 273.772 115.866C266.034 117.665 256.761 117.13 249.49 114.019C231.091 106.553 226.416 83.4072 231.152 65.7547C233.687 56.02 240.364 47.5126 249.763 43.7823C257.247 40.6597 266.834 40.2326 274.687 42.2722C291.376 46.2672 299.818 62.229 299.563 78.9249V79.0332L299.569 79.0392ZM244.639 79.689C244.53 90.0134 248.835 101.541 259.163 104.363C263.584 105.65 268.641 105.283 272.771 103.226C288.356 95.8614 288.271 62.9811 272.516 55.8214C268.186 53.7457 262.874 53.499 258.35 55.0633C248.411 58.5048 244.633 69.3165 244.633 79.5747V79.689H244.639Z" fill="#00897B"/>
<path d="M396.731 114.657C393.905 111.703 394.226 107.076 394.111 102.095C394.111 98.238 394.111 93.5812 394.111 88.774C394.111 84.43 394.111 80.0199 394.111 75.7061C394.087 69.7497 394.25 64.8462 393.432 61.501C392.558 57.0067 388.095 55.7131 384.184 54.7445C380.236 53.6133 374.96 52.2356 373.28 48.2586C372.589 46.4537 373.377 44.5524 374.814 43.3672C379.181 40.2927 383.899 41.1651 391.461 40.9546C393.99 40.9546 396.524 40.9546 399.078 40.9546C404.875 40.9546 411.685 40.9546 416.87 40.9546C420.782 40.9546 425.384 41.0207 427.907 41.9774C431.157 42.922 433.777 46.4476 431.242 49.6364C429.253 52.1273 426.312 53.1681 422.922 54.227C416.385 56.02 411.764 56.5735 411.333 64.4371C410.8 76.4942 411.285 91.692 411.097 103.99C411.061 106.126 410.982 108.37 410.594 110.313C410.06 113.147 408.423 115.457 405.736 116.306C402.819 117.256 399.023 116.907 396.779 114.687L396.737 114.645L396.731 114.657Z" fill="#00897B"/>
<path d="M442.413 114.717C440.739 112.78 441.03 110.44 440.945 107.72C440.945 106.084 440.945 104.519 440.945 102.823C440.945 87.7692 440.945 63.5647 440.945 49.8289C440.982 47.302 440.872 44.1975 443.062 42.6693C445.748 40.6958 450.248 40.6116 453.207 41.8931C456.027 42.9761 456.67 45.6234 456.658 48.4933C456.712 61.9282 456.658 94.8025 456.676 107.961C456.615 110.728 456.846 113.845 454.274 115.475C451 117.515 445.451 117.533 442.449 114.759L442.413 114.723V114.717Z" fill="#FF7043"/>
<path d="M530.381 92.1914C532.794 86.1026 533.54 78.4135 532.916 71.6509C531.2 46.8568 509.12 35.8285 487.767 43.1446C474.262 47.9398 467.682 61.6996 467.834 76.2355V76.3438C467.537 94.249 477.543 109.272 495.317 111.204C499.059 111.685 502.983 111.631 506.688 111.059C509.471 110.512 511.254 110.819 512.91 111.896C507.907 106.228 504.771 102.125 502.831 99.1585C500.86 100.56 495.621 99.2668 493.662 98.3944C480.957 92.8171 479.829 72.6978 485.572 61.7056C492.037 49.2875 510.011 49.7507 515.857 62.5539C519.356 69.8339 520.041 81.9211 515.651 88.8281C513.959 90.7534 512.437 89.7065 509.514 88.8161C507.13 88.064 504.414 87.9918 501.964 88.1843C497.628 88.4009 500.29 91.5476 502.14 94.5739L515.208 113.857C515.475 114.128 515.742 114.404 516.021 114.705C517.312 116.011 519.004 116.715 520.836 116.847C523.201 116.998 527.143 117.07 528.719 116.685C529.835 116.45 529.817 115.505 529.338 114.591C528.113 112.154 525.814 109.326 524.614 106.884C523.625 104.856 523.595 103.514 524.565 101.92C526.791 98.8396 529.016 95.9517 530.381 92.1793V92.1914Z" fill="#FF7043"/>
</g>
<defs>
<clipPath id="clip0_744_663">
<rect width="533" height="139" fill="white" transform="translate(0.5)"/>
</clipPath>
</defs>
</svg>
