<?xml version="1.0" encoding="UTF-8" standalone="no"?>
<!DOCTYPE svg PUBLIC "-//W3C//DTD SVG 1.1//EN" "http://www.w3.org/Graphics/SVG/1.1/DTD/svg11.dtd">
<svg xmlns="http://www.w3.org/2000/svg" version="1.1" viewBox="0.00 0.00 256.00 256.00">
<g stroke-width="2.00" fill="none" stroke-linecap="butt">
<path stroke="#dd938d" vector-effect="non-scaling-stroke" d="
  M 79.78 102.85
  L 95.49 102.84
  A 0.40 0.39 -6.4 0 0 95.88 102.36
  Q 94.30 95.47 92.50 88.92
  C 90.66 82.24 85.80 80.20 79.25 80.23
  Q 56.71 80.31 33.27 80.27
  C 17.72 80.24 17.46 103.15 33.90 102.89
  Q 44.83 102.72 55.21 102.86
  Q 56.50 102.88 56.50 104.16
  Q 56.55 141.31 56.46 179.17
  C 56.44 184.19 57.66 188.52 62.25 191.05
  C 70.68 195.68 79.12 189.48 79.08 180.25
  Q 78.93 139.59 78.96 103.66
  Q 78.96 102.85 79.78 102.85"
/>
<path stroke="#dd938d" vector-effect="non-scaling-stroke" d="
  M 135.19 150.32
  Q 134.51 153.15 133.80 150.32
  Q 126.70 121.98 119.67 93.75
  C 118.27 88.15 117.46 83.96 112.55 81.48
  Q 109.89 80.14 105.42 80.24
  Q 97.54 80.42 90.70 80.16
  Q 89.94 80.13 90.48 80.66
  Q 94.06 84.18 95.01 87.90
  Q 106.18 131.97 117.21 176.71
  Q 118.61 182.39 120.42 185.13
  C 128.38 197.22 147.03 194.14 150.60 180.22
  Q 157.77 152.33 164.79 123.07
  Q 165.34 120.76 165.90 123.07
  Q 172.08 148.31 179.46 177.91
  Q 180.48 182.01 182.23 184.81
  C 186.66 191.90 195.19 194.50 202.87 191.37
  Q 210.85 188.12 213.07 179.15
  Q 223.99 135.14 234.04 94.65
  Q 235.57 88.51 231.44 84.23
  Q 226.78 79.40 221.04 80.53
  C 215.47 81.61 213.19 85.27 211.91 90.48
  Q 204.42 120.86 196.89 151.15
  Q 196.47 152.87 196.04 151.15
  Q 189.19 123.94 182.35 96.32
  Q 180.83 90.18 179.44 87.96
  C 175.40 81.52 166.99 78.65 159.95 81.24
  Q 151.41 84.39 149.20 93.23
  Q 141.84 122.75 135.19 150.32"
/>
</g>
<path fill="#bb261b" d="
  M 255.49 223.96
  A 31.52 31.52 0.0 0 1 223.97 255.48
  L 32.01 255.48
  A 31.52 31.52 0.0 0 1 0.49 223.96
  L 0.49 32.02
  A 31.52 31.52 0.0 0 1 32.01 0.50
  L 223.97 0.50
  A 31.52 31.52 0.0 0 1 255.49 32.02
  L 255.49 223.96
  Z
  M 79.78 102.85
  L 95.49 102.84
  A 0.40 0.39 -6.4 0 0 95.88 102.36
  Q 94.30 95.47 92.50 88.92
  C 90.66 82.24 85.80 80.20 79.25 80.23
  Q 56.71 80.31 33.27 80.27
  C 17.72 80.24 17.46 103.15 33.90 102.89
  Q 44.83 102.72 55.21 102.86
  Q 56.50 102.88 56.50 104.16
  Q 56.55 141.31 56.46 179.17
  C 56.44 184.19 57.66 188.52 62.25 191.05
  C 70.68 195.68 79.12 189.48 79.08 180.25
  Q 78.93 139.59 78.96 103.66
  Q 78.96 102.85 79.78 102.85
  Z
  M 135.19 150.32
  Q 134.51 153.15 133.80 150.32
  Q 126.70 121.98 119.67 93.75
  C 118.27 88.15 117.46 83.96 112.55 81.48
  Q 109.89 80.14 105.42 80.24
  Q 97.54 80.42 90.70 80.16
  Q 89.94 80.13 90.48 80.66
  Q 94.06 84.18 95.01 87.90
  Q 106.18 131.97 117.21 176.71
  Q 118.61 182.39 120.42 185.13
  C 128.38 197.22 147.03 194.14 150.60 180.22
  Q 157.77 152.33 164.79 123.07
  Q 165.34 120.76 165.90 123.07
  Q 172.08 148.31 179.46 177.91
  Q 180.48 182.01 182.23 184.81
  C 186.66 191.90 195.19 194.50 202.87 191.37
  Q 210.85 188.12 213.07 179.15
  Q 223.99 135.14 234.04 94.65
  Q 235.57 88.51 231.44 84.23
  Q 226.78 79.40 221.04 80.53
  C 215.47 81.61 213.19 85.27 211.91 90.48
  Q 204.42 120.86 196.89 151.15
  Q 196.47 152.87 196.04 151.15
  Q 189.19 123.94 182.35 96.32
  Q 180.83 90.18 179.44 87.96
  C 175.40 81.52 166.99 78.65 159.95 81.24
  Q 151.41 84.39 149.20 93.23
  Q 141.84 122.75 135.19 150.32
  Z"
/>
<path fill="#ffffff" d="
  M 78.96 103.66
  Q 78.93 139.59 79.08 180.25
  C 79.12 189.48 70.68 195.68 62.25 191.05
  C 57.66 188.52 56.44 184.19 56.46 179.17
  Q 56.55 141.31 56.50 104.16
  Q 56.50 102.88 55.21 102.86
  Q 44.83 102.72 33.90 102.89
  C 17.46 103.15 17.72 80.24 33.27 80.27
  Q 56.71 80.31 79.25 80.23
  C 85.80 80.20 90.66 82.24 92.50 88.92
  Q 94.30 95.47 95.88 102.36
  A 0.40 0.39 -6.4 0 1 95.49 102.84
  L 79.78 102.85
  Q 78.96 102.85 78.96 103.66
  Z"
/>
<path fill="#ffffff" d="
  M 135.19 150.32
  Q 141.84 122.75 149.20 93.23
  Q 151.41 84.39 159.95 81.24
  C 166.99 78.65 175.40 81.52 179.44 87.96
  Q 180.83 90.18 182.35 96.32
  Q 189.19 123.94 196.04 151.15
  Q 196.47 152.87 196.89 151.15
  Q 204.42 120.86 211.91 90.48
  C 213.19 85.27 215.47 81.61 221.04 80.53
  Q 226.78 79.40 231.44 84.23
  Q 235.57 88.51 234.04 94.65
  Q 223.99 135.14 213.07 179.15
  Q 210.85 188.12 202.87 191.37
  C 195.19 194.50 186.66 191.90 182.23 184.81
  Q 180.48 182.01 179.46 177.91
  Q 172.08 148.31 165.90 123.07
  Q 165.34 120.76 164.79 123.07
  Q 157.77 152.33 150.60 180.22
  C 147.03 194.14 128.38 197.22 120.42 185.13
  Q 118.61 182.39 117.21 176.71
  Q 106.18 131.97 95.01 87.90
  Q 94.06 84.18 90.48 80.66
  Q 89.94 80.13 90.70 80.16
  Q 97.54 80.42 105.42 80.24
  Q 109.89 80.14 112.55 81.48
  C 117.46 83.96 118.27 88.15 119.67 93.75
  Q 126.70 121.98 133.80 150.32
  Q 134.51 153.15 135.19 150.32
  Z"
/>
</svg>
